<svg width="206" height="220" viewBox="0 0 206 220" fill="none" xmlns="http://www.w3.org/2000/svg">
<path d="M12.8823 199.638C9.95452 199.638 7.49517 199.17 5.27004 198.234C3.04491 197.298 1.28823 196.128 0 194.489L5.38715 189.809C6.55827 190.979 7.8465 191.798 9.25185 192.383C10.6572 192.968 12.0625 193.202 13.3508 193.202C13.8192 193.202 14.2877 193.202 14.7561 193.085C15.1074 192.968 15.4588 192.851 15.8101 192.617C16.0443 192.383 16.2786 192.149 16.3957 191.915C16.5128 191.681 16.6299 191.33 16.6299 190.979C16.6299 190.277 16.2786 189.691 15.5759 189.223C15.2246 188.989 14.639 188.872 13.9363 188.521C13.1165 188.287 12.1796 187.936 10.8914 187.585C9.13474 187.117 7.61228 186.649 6.32405 185.947C5.03582 185.362 3.98181 184.66 3.16202 183.84C2.45935 183.021 1.87379 182.202 1.40534 181.266C1.05401 180.33 0.819784 179.277 0.819784 178.106C0.819784 176.702 1.17112 175.532 1.75668 174.362C2.45935 173.309 3.27914 172.255 4.33314 171.436C5.38715 170.617 6.67538 170.032 8.08073 169.564C9.48607 169.096 11.0085 168.979 12.531 168.979C14.1706 168.979 15.693 169.213 17.2155 169.564C18.7379 169.915 20.0262 170.5 21.3144 171.085C22.6026 171.787 23.7737 172.489 24.7106 173.426L20.0262 178.691C19.3235 178.106 18.6208 177.521 17.801 177.053C16.9812 176.585 16.1615 176.117 15.2246 175.883C14.2877 175.532 13.4679 175.415 12.7652 175.415C12.1796 175.415 11.7112 175.415 11.2428 175.532C10.7743 175.649 10.423 175.766 10.1887 176C9.83741 176.234 9.7203 176.468 9.48607 176.702C9.36896 176.936 9.25185 177.287 9.25185 177.638C9.25185 177.989 9.36896 178.34 9.60318 178.691C9.83741 179.043 10.0716 179.277 10.423 179.511C10.7743 179.745 11.3599 179.979 12.1796 180.213C12.9994 180.447 14.0534 180.798 15.4588 181.266C17.2155 181.734 18.7379 182.319 19.909 182.904C21.1973 183.489 22.1342 184.191 22.954 185.011C23.5395 185.596 24.008 186.415 24.2422 187.234C24.5935 188.053 24.7106 188.989 24.7106 189.926C24.7106 191.798 24.1251 193.436 23.0711 194.957C22.0171 196.362 20.6117 197.532 18.7379 198.351C16.8641 199.17 15.2246 199.638 12.8823 199.638Z" fill="black"/>
<path d="M41.3405 199.638C38.8812 199.638 36.6561 198.936 34.6652 197.649C32.6742 196.362 31.1518 194.489 29.9807 192.266C28.8096 189.926 28.224 187.351 28.224 184.426C28.224 181.383 28.8096 178.809 29.9807 176.468C31.1518 174.128 32.6742 172.372 34.6652 171.085C36.6561 169.798 38.8812 169.096 41.4577 169.096C42.863 169.096 44.1512 169.33 45.3223 169.681C46.4935 170.032 47.5475 170.617 48.3673 171.319C49.3042 172.021 50.0068 172.84 50.5924 173.777C51.1779 174.713 51.6464 175.766 51.9977 176.819L50.1239 176.585V169.564H58.9073V199.053H49.8897V191.915H51.8806C51.5293 192.968 51.0608 193.904 50.4753 194.84C49.7726 195.777 48.9528 196.596 48.0159 197.298C47.079 198 46.025 198.585 44.8539 198.936C43.917 199.404 42.6288 199.638 41.3405 199.638ZM43.6828 192.149C45.0881 192.149 46.2592 191.798 47.1961 191.213C48.2501 190.628 48.9528 189.691 49.5384 188.521C50.1239 187.351 50.3582 185.947 50.3582 184.426C50.3582 182.787 50.1239 181.5 49.5384 180.33C48.9528 179.16 48.2501 178.223 47.1961 177.638C46.1421 176.936 44.971 176.702 43.6828 176.702C42.3945 176.702 41.2234 177.053 40.1694 177.638C39.2325 178.34 38.4127 179.16 37.8272 180.33C37.2416 181.5 37.0074 182.904 37.0074 184.426C37.0074 186.064 37.2416 187.351 37.8272 188.521C38.4127 189.691 39.1154 190.628 40.1694 191.213C41.2234 191.798 42.3945 192.149 43.6828 192.149Z" fill="black"/>
<path d="M66.9881 211.34V169.681H75.4201L75.7715 176.234L74.1319 175.766C74.3661 174.596 75.0688 173.426 76.0057 172.489C76.9426 171.553 78.2308 170.734 79.7533 170.032C81.2757 169.447 82.9153 169.096 84.5549 169.096C87.0142 169.096 89.3565 169.798 91.2303 171.085C93.2212 172.372 94.7436 174.245 95.9147 176.468C97.0859 178.691 97.5543 181.383 97.5543 184.426C97.5543 187.351 96.9687 190.043 95.9147 192.266C94.7436 194.606 93.2212 196.362 91.2303 197.649C89.2393 198.936 87.0142 199.638 84.4378 199.638C82.7982 199.638 81.1586 199.287 79.6362 198.702C78.1137 198.117 76.8255 197.181 75.7715 196.128C74.7175 195.074 74.0148 193.904 73.6635 192.617L75.7715 191.798V211.223H66.9881V211.34ZM82.3297 192.149C83.618 192.149 84.7891 191.798 85.8431 191.213C86.8971 190.511 87.5998 189.691 88.1853 188.521C88.7709 187.351 89.0051 186.064 89.0051 184.426C89.0051 182.904 88.7709 181.5 88.1853 180.33C87.5998 179.16 86.8971 178.223 85.8431 177.638C84.9062 176.936 83.7351 176.702 82.3297 176.702C80.9244 176.702 79.7533 177.053 78.8164 177.638C77.7624 178.223 77.0597 179.16 76.4741 180.33C75.8886 181.5 75.6544 182.904 75.6544 184.426C75.6544 186.064 75.8886 187.351 76.4741 188.521C77.0597 189.691 77.7624 190.511 78.8164 191.213C79.7533 191.798 80.9244 192.149 82.3297 192.149Z" fill="black"/>
<path d="M108.446 163.83C106.806 163.83 105.518 163.479 104.581 162.66C103.644 161.84 103.176 160.67 103.176 159.266C103.176 157.979 103.644 156.809 104.581 155.989C105.518 155.17 106.806 154.702 108.446 154.702C110.085 154.702 111.374 155.053 112.31 155.872C113.247 156.691 113.716 157.745 113.716 159.266C113.716 160.67 113.247 161.723 112.31 162.543C111.374 163.362 110.085 163.83 108.446 163.83ZM103.995 169.681H112.896V199.17H103.995V169.681Z" fill="black"/>
<path d="M135.264 199.638C131.985 199.638 129.175 198.936 126.832 197.649C124.373 196.362 122.616 194.489 121.211 192.266C119.923 190.043 119.22 187.351 119.22 184.426C119.22 182.202 119.571 180.096 120.274 178.223C120.977 176.351 122.031 174.713 123.436 173.309C124.841 171.904 126.364 170.851 128.238 170.149C130.111 169.447 132.102 168.979 134.21 168.979C136.318 168.979 138.192 169.33 139.949 170.032C141.706 170.734 143.111 171.787 144.399 173.191C145.687 174.479 146.624 176.117 147.327 177.872C148.03 179.628 148.264 181.617 148.264 183.84V186.181H124.841L123.553 181.149H141.12L140.183 182.202V181.149C140.066 180.213 139.832 179.394 139.363 178.691C138.895 177.989 138.192 177.404 137.372 177.053C136.553 176.702 135.616 176.468 134.562 176.468C133.156 176.468 131.868 176.702 130.814 177.287C129.76 177.872 129.057 178.691 128.472 179.745C128.003 180.798 127.652 182.202 127.652 183.723C127.652 185.362 128.003 186.766 128.706 187.936C129.409 189.106 130.346 190.043 131.751 190.745C133.039 191.447 134.679 191.798 136.435 191.798C137.724 191.798 138.778 191.564 139.832 191.213C140.769 190.862 141.823 190.16 142.994 189.34L147.21 195.191C146.039 196.245 144.868 196.947 143.579 197.649C142.291 198.234 141.003 198.702 139.598 199.053C137.958 199.521 136.67 199.638 135.264 199.638Z" fill="black"/>
<path d="M153.768 199.053V169.681H162.2L162.434 175.649L160.678 176.351C161.029 175.064 161.849 173.777 162.903 172.723C163.957 171.67 165.245 170.734 166.65 170.032C168.173 169.33 169.695 168.979 171.335 168.979C173.56 168.979 175.434 169.447 176.956 170.383C178.479 171.319 179.65 172.606 180.352 174.479C181.172 176.234 181.524 178.457 181.524 181.032V199.053H172.623V181.734C172.623 180.564 172.506 179.628 172.155 178.809C171.803 177.989 171.335 177.404 170.632 177.053C169.93 176.702 169.11 176.468 168.056 176.468C167.236 176.468 166.533 176.585 165.948 176.819C165.245 177.053 164.659 177.404 164.191 177.872C163.723 178.34 163.371 178.809 163.02 179.511C162.786 180.096 162.551 180.798 162.551 181.5V199.17H158.218C157.164 199.17 156.345 199.17 155.525 199.17C154.822 199.053 154.237 199.053 153.768 199.053Z" fill="black"/>
<path d="M186.208 177.404V169.681H206V177.404H186.208ZM191.478 199.053V162.191H200.379V199.053H191.478Z" fill="black"/>
<path d="M98.6083 220C97.6714 220 96.8516 219.766 96.149 219.298C95.4463 218.83 94.8607 218.245 94.5094 217.543C94.0409 216.84 93.9238 215.904 93.9238 214.968C93.9238 214.032 94.158 213.213 94.5094 212.394C94.9778 211.691 95.4463 210.989 96.149 210.638C96.8516 210.17 97.6714 209.936 98.6083 209.936C99.4281 209.936 100.248 210.053 100.951 210.404C101.653 210.755 102.239 211.223 102.59 211.809L101.302 213.33C101.068 213.096 100.833 212.862 100.599 212.628C100.365 212.394 100.014 212.277 99.6623 212.16C99.311 212.043 99.0768 211.926 98.7254 211.926C98.1399 211.926 97.6714 212.043 97.3201 212.277C96.8516 212.511 96.6174 212.862 96.3832 213.33C96.149 213.798 96.0318 214.266 96.0318 214.851C96.0318 215.436 96.149 215.904 96.3832 216.372C96.6174 216.84 96.9687 217.191 97.4372 217.426C97.9056 217.66 98.3741 217.777 98.8425 217.777C99.1939 217.777 99.4281 217.777 99.7794 217.66C100.131 217.543 100.365 217.426 100.599 217.191C100.833 216.957 101.068 216.723 101.302 216.489L102.59 218.011C102.122 218.596 101.653 218.947 100.833 219.298C100.131 219.883 99.4281 220 98.6083 220Z" fill="black"/>
<path d="M113.364 220C112.428 220 111.608 219.766 110.788 219.298C110.085 218.83 109.5 218.245 109.031 217.543C108.563 216.84 108.329 215.904 108.329 214.968C108.329 214.032 108.563 213.213 109.031 212.394C109.5 211.691 110.085 211.106 110.788 210.638C111.491 210.17 112.428 209.936 113.364 209.936C114.301 209.936 115.121 210.17 115.941 210.638C116.644 211.106 117.229 211.691 117.698 212.394C118.166 213.096 118.4 214.032 118.4 214.968C118.4 215.904 118.166 216.723 117.698 217.543C117.229 218.245 116.644 218.83 115.941 219.298C115.238 219.766 114.301 220 113.364 220ZM113.364 218.011C113.833 218.011 114.301 217.894 114.77 217.66C115.121 217.426 115.472 217.074 115.707 216.606C115.941 216.138 116.058 215.67 116.058 215.085C116.058 214.5 115.941 214.032 115.707 213.564C115.472 213.096 115.121 212.745 114.77 212.511C114.418 212.277 113.95 212.16 113.364 212.16C112.896 212.16 112.428 212.277 111.959 212.511C111.491 212.745 111.256 213.096 111.022 213.564C110.788 214.032 110.671 214.5 110.671 215.085C110.671 215.67 110.788 216.138 111.022 216.606C111.256 217.074 111.608 217.426 111.959 217.66C112.428 217.894 112.896 218.011 113.364 218.011Z" fill="black"/>
<path d="M128.94 220C128.121 220 127.301 219.766 126.598 219.298C125.895 218.83 125.427 218.245 124.959 217.543C124.607 216.84 124.373 215.904 124.373 214.968C124.373 214.032 124.607 213.213 124.959 212.394C125.31 211.691 125.895 211.106 126.598 210.638C127.301 210.17 128.003 209.936 128.94 209.936C129.409 209.936 129.877 210.053 130.229 210.17C130.697 210.287 131.048 210.521 131.4 210.755C131.751 210.989 131.985 211.223 132.219 211.574C132.454 211.926 132.571 212.16 132.571 212.511L131.985 212.628V206.309H134.21V219.766H132.102V217.543H132.571C132.571 217.894 132.454 218.128 132.219 218.362C131.985 218.596 131.751 218.947 131.4 219.181C131.048 219.415 130.697 219.649 130.346 219.766C129.877 220 129.409 220 128.94 220ZM129.409 218.128C129.877 218.128 130.346 218.011 130.814 217.777C131.165 217.543 131.517 217.191 131.751 216.723C131.985 216.255 132.102 215.787 132.102 215.085C132.102 214.5 131.985 213.915 131.751 213.447C131.517 212.979 131.165 212.628 130.814 212.394C130.463 212.16 129.994 212.043 129.409 212.043C128.94 212.043 128.472 212.16 128.003 212.394C127.652 212.628 127.301 212.979 127.067 213.447C126.832 213.915 126.715 214.5 126.715 215.085C126.715 215.67 126.832 216.255 127.067 216.723C127.301 217.191 127.652 217.543 128.003 217.777C128.472 218.011 128.823 218.128 129.409 218.128Z" fill="black"/>
<path d="M146.039 220C144.985 220 144.165 219.766 143.345 219.415C142.525 218.947 141.94 218.362 141.588 217.66C141.12 216.957 140.886 216.138 140.886 215.085C140.886 214.383 141.003 213.681 141.237 212.979C141.471 212.394 141.823 211.809 142.291 211.34C142.76 210.872 143.228 210.521 143.814 210.287C144.399 210.053 145.102 209.936 145.804 209.936C146.39 209.936 146.976 210.053 147.561 210.287C148.147 210.521 148.615 210.872 148.966 211.223C149.318 211.574 149.669 212.16 149.903 212.745C150.138 213.33 150.255 213.915 150.255 214.617V215.436H142.525L142.057 213.915H148.381L148.147 214.266V213.915C148.147 213.564 148.03 213.213 147.795 212.979C147.561 212.745 147.327 212.511 146.976 212.277C146.624 212.16 146.273 212.043 145.922 212.043C145.336 212.043 144.868 212.16 144.399 212.394C144.048 212.628 143.696 212.979 143.462 213.33C143.228 213.798 143.111 214.266 143.111 214.968C143.111 215.553 143.228 216.138 143.462 216.606C143.696 217.074 144.048 217.426 144.516 217.66C144.985 217.894 145.57 218.011 146.156 218.011C146.624 218.011 146.976 217.894 147.444 217.777C147.795 217.66 148.264 217.426 148.615 216.957L149.669 218.479C149.318 218.83 148.966 219.064 148.498 219.298C148.03 219.532 147.678 219.649 147.21 219.766C146.858 220 146.39 220 146.039 220Z" fill="black"/>
<path d="M156.93 219.883V206.426H159.155V219.883H156.93Z" fill="black"/>
<path d="M170.047 220C169.227 220 168.524 219.766 167.939 219.298C167.353 218.83 166.768 218.245 166.416 217.543C166.065 216.84 165.831 215.904 165.831 214.968C165.831 214.032 166.065 213.213 166.416 212.394C166.768 211.691 167.353 211.106 168.056 210.638C168.758 210.17 169.461 210.053 170.281 210.053C170.749 210.053 171.218 210.17 171.569 210.287C171.92 210.404 172.272 210.638 172.623 210.872C172.974 211.106 173.209 211.457 173.326 211.691C173.443 211.926 173.677 212.394 173.677 212.745L173.209 212.628V210.17H175.434V219.766H173.209V217.426L173.794 217.309C173.677 217.66 173.56 218.011 173.326 218.245C173.092 218.479 172.857 218.83 172.506 219.064C172.155 219.298 171.803 219.532 171.452 219.649C170.866 220 170.398 220 170.047 220ZM170.632 218.011C171.101 218.011 171.569 217.894 172.038 217.66C172.389 217.426 172.74 217.074 172.974 216.606C173.209 216.138 173.326 215.67 173.326 215.085C173.326 214.5 173.209 214.032 172.974 213.564C172.74 213.096 172.389 212.745 172.038 212.511C171.686 212.277 171.218 212.16 170.632 212.16C170.164 212.16 169.695 212.277 169.227 212.511C168.876 212.745 168.524 213.096 168.29 213.564C168.056 214.032 167.939 214.5 167.939 215.085C167.939 215.67 168.056 216.255 168.29 216.606C168.524 216.957 168.758 217.426 169.227 217.66C169.578 217.894 170.047 218.011 170.632 218.011Z" fill="black"/>
<path d="M188.082 220C187.613 220 187.262 219.883 186.794 219.766C186.325 219.649 185.974 219.415 185.74 219.298C185.505 219.181 185.154 218.83 184.92 218.596C184.686 218.362 184.569 218.011 184.451 217.777L185.037 217.543V219.883H182.929V206.426H185.154V212.511L184.803 212.277C184.92 212.043 185.037 211.691 185.271 211.457C185.505 211.223 185.74 210.989 186.091 210.755C186.442 210.521 186.794 210.404 187.145 210.287C187.496 210.17 187.848 210.053 188.316 210.053C189.136 210.053 189.956 210.287 190.658 210.638C191.361 211.106 191.829 211.691 192.181 212.394C192.532 213.096 192.766 214.032 192.766 214.968C192.766 215.904 192.532 216.84 192.181 217.543C191.829 218.245 191.244 218.83 190.658 219.298C189.604 219.766 188.902 220 188.082 220ZM187.613 218.128C188.082 218.128 188.55 218.011 189.019 217.777C189.37 217.543 189.721 217.191 189.956 216.723C190.19 216.255 190.307 215.787 190.307 215.202C190.307 214.617 190.19 214.149 189.956 213.681C189.721 213.213 189.37 212.862 189.019 212.628C188.667 212.394 188.199 212.277 187.613 212.277C187.145 212.277 186.677 212.394 186.208 212.628C185.857 212.862 185.505 213.213 185.271 213.681C185.037 214.149 184.92 214.617 184.92 215.202C184.92 215.787 185.037 216.372 185.271 216.723C185.505 217.074 185.857 217.543 186.208 217.777C186.677 217.894 187.145 218.128 187.613 218.128Z" fill="black"/>
<path d="M202.37 220C201.55 220 200.73 219.883 200.027 219.532C199.325 219.298 198.856 218.83 198.388 218.362L199.793 217.074C200.144 217.543 200.613 217.777 200.964 218.011C201.433 218.245 201.901 218.245 202.37 218.245C202.604 218.245 202.721 218.245 202.955 218.128C203.072 218.128 203.306 218.011 203.424 217.894C203.541 217.777 203.658 217.66 203.658 217.543C203.775 217.426 203.775 217.309 203.775 217.074C203.775 216.84 203.658 216.606 203.424 216.372C203.306 216.255 203.072 216.255 202.838 216.138C202.604 216.021 202.252 215.904 201.784 215.904C201.081 215.787 200.613 215.553 200.144 215.319C199.676 215.085 199.325 214.851 199.09 214.617C198.856 214.383 198.739 214.149 198.622 213.798C198.505 213.564 198.505 213.213 198.505 212.862C198.505 212.394 198.622 212.043 198.739 211.691C198.973 211.34 199.208 210.989 199.559 210.755C199.91 210.521 200.262 210.287 200.73 210.17C201.198 210.053 201.667 209.936 202.135 209.936C202.604 209.936 203.072 210.053 203.541 210.17C204.009 210.287 204.478 210.521 204.829 210.638C205.18 210.872 205.532 211.106 205.883 211.457L204.595 212.862C204.36 212.628 204.126 212.394 203.892 212.277C203.658 212.16 203.306 211.926 203.072 211.926C202.838 211.809 202.487 211.809 202.252 211.809C202.018 211.809 201.784 211.809 201.667 211.926C201.433 211.926 201.316 212.043 201.198 212.16C201.081 212.277 200.964 212.394 200.964 212.511C200.847 212.628 200.847 212.745 200.847 212.979C200.847 213.096 200.847 213.213 200.964 213.447C201.081 213.564 201.081 213.681 201.198 213.798C201.316 213.915 201.55 214.032 201.784 214.032C202.018 214.032 202.37 214.266 202.838 214.383C203.424 214.5 203.892 214.734 204.36 214.968C204.712 215.202 205.063 215.436 205.297 215.67C205.532 215.904 205.649 216.138 205.766 216.489C205.883 216.723 205.883 217.074 205.883 217.426C205.883 218.011 205.766 218.479 205.414 218.947C205.063 219.415 204.712 219.766 204.126 220C203.658 219.883 203.072 220 202.37 220Z" fill="black"/>
<path d="M73.8977 67.9894L93.3383 77.7021V126.149L35.0165 67.9894L103.059 0L112.779 9.71277L73.8977 67.9894Z" fill="black"/>
<path d="M170.984 67.9894L103.059 135.862L93.3383 126.149L132.219 67.9894L112.779 58.2766V9.71277L170.984 67.9894Z" fill="black"/>
</svg>
